<?xml version="1.0" encoding="UTF-8" standalone="no"?>
<!-- Created with Inkscape (http://www.inkscape.org/) -->

<svg
   version="1.1"
   id="svg2"
   width="883.28003"
   height="943.30664"
   viewBox="0 0 883.28003 943.30664"
   sodipodi:docname="round-cookies-with-cream-vectorportal.svg"
   inkscape:version="1.2.2 (b0a8486541, 2022-12-01)"
   xmlns:inkscape="http://www.inkscape.org/namespaces/inkscape"
   xmlns:sodipodi="http://sodipodi.sourceforge.net/DTD/sodipodi-0.dtd"
   xmlns="http://www.w3.org/2000/svg"
   xmlns:svg="http://www.w3.org/2000/svg">
  <defs
     id="defs6" />
  <sodipodi:namedview
     id="namedview4"
     pagecolor="#ffffff"
     bordercolor="#000000"
     borderopacity="0.25"
     inkscape:showpageshadow="2"
     inkscape:pageopacity="0.0"
     inkscape:pagecheckerboard="0"
     inkscape:deskcolor="#d1d1d1"
     showgrid="false"
     inkscape:zoom="1.0887234"
     inkscape:cx="187.37542"
     inkscape:cy="403.68381"
     inkscape:window-width="1853"
     inkscape:window-height="1251"
     inkscape:window-x="41"
     inkscape:window-y="81"
     inkscape:window-maximized="0"
     inkscape:current-layer="g12">
    <inkscape:page
       x="0"
       y="0"
       id="page8"
       width="883.28003"
       height="943.30664"
       inkscape:export-filename="Page 1.png"
       inkscape:export-xdpi="96"
       inkscape:export-ydpi="96" />
  </sodipodi:namedview>
  <g
     id="g10"
     inkscape:groupmode="layer"
     inkscape:label="Page 1"
     transform="matrix(1.3333333,0,0,-1.3333333,0,943.30667)">
    <g
       id="g12"
       transform="scale(0.1)">
      <path
         d="m 3434.4,912.27 c 1293.84,0 2349.07,216.12 2349.07,481.11 0,264.98 -1055.23,481.09 -2349.07,481.09 -1293.8,0 -2349.03,-216.11 -2349.03,-481.09 0,-264.99 1055.23,-481.11 2349.03,-481.11"
         style="fill:#e8e8e7;fill-opacity:1;fill-rule:evenodd;stroke:none"
         id="path170" />
      <path
         d="m 4617.89,4628.07 c 463.45,-243.94 798.77,-642.04 911.6,-1084.73 123.92,-486.1 0.71,-1038.16 -433.09,-1511.19 -463.81,-505.55 -1157.02,-789.13 -1871.56,-819.94 -701.45,-30.24 -1368.03,187.25 -1814.89,629.44 -409.38,404.36 -542.079,909.3 -451.481,1381.98 82.921,432.73 354.231,846.39 784.361,1162.3 408.33,299.86 907.88,472.83 1402.15,516.72 500.55,44.46 1009.47,-30.65 1472.91,-274.58"
         style="fill:#4b2e1a;fill-opacity:1;fill-rule:evenodd;stroke:none"
         id="path172" />
      <path
         d="m 4606.82,4958.96 c 463.44,-243.93 798.77,-642.04 911.61,-1084.72 123.9,-486.1 0.69,-1038.16 -433.11,-1511.19 -463.81,-505.55 -1157.01,-789.12 -1871.55,-819.93 -701.46,-30.24 -1368.05,187.24 -1814.9,629.43 -409.374,404.35 -542.085,909.3 -451.487,1381.98 82.937,432.72 354.237,846.38 784.367,1162.3 408.33,299.86 907.88,472.82 1402.13,516.71 500.57,44.46 1009.5,-30.65 1472.94,-274.58"
         style="fill:#d3bb9e;fill-opacity:1;fill-rule:evenodd;stroke:none"
         id="path174" />
      <path
         d="m 5318.54,4323.62 c 91.81,-140.92 159.85,-292.33 199.89,-449.38 123.9,-486.1 0.69,-1038.16 -433.11,-1511.19 -463.81,-505.55 -1157.01,-789.12 -1871.55,-819.93 -114.06,-4.92 -227.19,-3.25 -338.61,4.84 1428.91,27.06 2085.75,779.36 1410.54,569.14 221.95,777.29 443.9,1554.58 665.84,2331.88 l 367,-125.36"
         style="fill:#b99c77;fill-opacity:1;fill-rule:evenodd;stroke:none"
         id="path176" />
      <path
         d="m 4569.02,5265.08 c 463.44,-243.94 798.77,-642.03 911.61,-1084.72 123.91,-486.1 0.7,-1038.17 -433.1,-1511.18 -463.81,-505.56 -1157.02,-789.13 -1871.55,-819.95 -701.46,-30.24 -1368.05,187.24 -1814.9,629.42 -409.381,404.37 -542.088,909.31 -451.494,1382.01 82.937,432.71 354.244,846.36 784.374,1162.29 408.33,299.85 907.88,472.82 1402.12,516.71 500.58,44.45 1009.51,-30.65 1472.94,-274.58"
         style="fill:#4b2e1a;fill-opacity:1;fill-rule:evenodd;stroke:none"
         id="path178" />
      <path
         d="m 4479.78,5399.11 c 444.34,-224.05 765.85,-589.72 874.04,-996.34 118.79,-446.5 0.68,-953.57 -415.26,-1388.07 -444.71,-464.36 -1109.35,-724.83 -1794.44,-753.12 -672.58,-27.79 -1311.71,171.98 -1740.15,578.13 -392.51,371.42 -519.751,835.22 -432.896,1269.4 79.536,397.46 339.656,777.42 752.066,1067.6 391.5,275.42 870.48,434.3 1344.37,474.61 479.95,40.84 967.91,-28.15 1412.27,-252.21"
         style="fill:#633c1b;fill-opacity:1;fill-rule:evenodd;stroke:none"
         id="path180" />
      <path
         d="m 3435.46,4503.75 c -195.22,122.37 -496.28,100.66 -682.6,-47.79 -191.74,-152.74 -200.03,-387.95 -8.27,-526.42 198.94,-143.65 527.78,-123.17 722.84,46.26 189.64,164.7 170.28,401.51 -31.97,527.95 z m 168.4,139.93 c -40.27,-1.55 -80.78,-3.29 -120.57,-5.3 -51.95,-1.94 -102.21,2.92 -149.5,15.1 -47.02,12.1 -88.2,30.54 -123.31,54.57 -28.1,18.94 -55.31,37.37 -82.4,56.1 -30.98,-19.34 -61.42,-38.96 -92.09,-58.05 -35.56,-21.93 -74.87,-39.47 -117.22,-52.45 -0.68,-0.11 -0.99,-0.39 -1.3,-0.65 -4.79,-1.44 -9.85,-2.4 -14.66,-3.86 -48.9,-13.21 -99.25,-18.73 -148.9,-17.82 -38.96,0.93 -77.83,1.87 -116.36,2.71 -9.38,-28.19 -18.78,-56.48 -27.85,-85.06 -12.26,-37.49 -32.81,-72.79 -62.94,-106.03 -30.48,-32.79 -68.85,-60.83 -112.96,-84.21 -34.79,-18.29 -69.75,-36.98 -104.19,-55.42 17.14,-25.53 33.84,-50.96 51.47,-76.89 22.56,-33.3 35.25,-70.38 37.62,-110.1 3.04,-39.78 -5.06,-80.57 -23.04,-121.07 -14.5,-31.61 -28.69,-63.44 -42.74,-95.5 37.99,-10.29 76.12,-20.15 114.24,-29.94 49.48,-13.22 94.24,-33.52 131.95,-61.48 37.99,-28.26 66.77,-63.01 87.19,-102.14 16.08,-31.05 31.76,-62.03 47.8,-93.24 41.9,13.17 83.49,26.07 125.02,39.09 53.8,16.71 109.26,25.28 164.8,24.61 56.68,-0.38 110.52,-10.2 161.3,-27.72 39.39,-14.28 79.46,-28.46 119.63,-42.16 22.48,30.98 45.06,62.18 67.59,93.33 28.09,39.35 64.07,73.6 108.83,101.93 44.41,27.69 95.01,47.91 149.74,60.76 41.78,9.82 84.41,19.76 126.56,29.58 -8.8,33.34 -17.82,66.14 -25.94,98.81 -11,41.14 -11.8,83.4 -0.74,124.32 1.1,4.36 2.08,8.34 3.07,12.33 0.32,0.3 0.63,0.59 0.93,0.89 11.68,35.55 31.07,68.94 57.82,99.97 23.03,26.39 46.38,52.54 70.19,79.32 -33.69,19.17 -66.7,37.93 -99.18,56.4 -41.92,23.95 -76.5,52.62 -101.65,85.96 -25.61,33.5 -41.16,69.26 -45.81,106.7 -4.15,29.17 -8.45,57.8 -12.4,86.61 z m 507.95,-5.37 c -8.22,40.98 -16.47,81.76 -24.23,122.49 -13.14,67.71 -61.46,128.4 -135.88,170.44 -73.35,41.47 -166.24,60.92 -261.78,56.76 -55.99,-2.67 -111.61,-5.36 -167.18,-7.85 -39.91,25.13 -78.91,49.83 -117.84,74.79 -64.47,41.51 -150.86,63.26 -242.55,61.77 -91.25,-1.87 -181.12,-26.87 -253.44,-70.71 -43.06,-25.85 -86.32,-51.57 -129.1,-77.87 -53.79,0.73 -106.86,1.29 -160.07,2.1 -90.32,0.62 -182.43,-21.46 -259.7,-63.91 -76.32,-42.38 -132.33,-102.35 -157.44,-168.21 -14.36,-39.25 -29.62,-79.07 -44.51,-118.49 -48.17,-25.21 -97.1,-50.42 -146.04,-75.55 -82.88,-43.19 -146.3,-105.31 -178.39,-175.18 -33.27,-71.58 -31.31,-145.52 6.56,-208.4 21.48,-37.21 43.83,-75.14 66.98,-113.26 -22.26,-44.52 -44.18,-89.5 -66.41,-134.93 -38.61,-77.67 -40.73,-160.01 -5.29,-231.49 35.69,-73.12 106.76,-128.25 200.19,-154.83 55.72,-16.12 111.43,-32.18 167.57,-48.22 20.61,-46.08 41.9,-92.74 63.12,-139.69 36.56,-80.72 110.21,-144.54 207.83,-178.04 98.82,-34.55 212.32,-34.98 318.84,-0.96 62.55,20.15 124.85,40.21 187.78,59.66 58.12,-21.74 116.5,-43.84 176.6,-66.54 101.43,-38.21 218.34,-42.98 326.92,-12.35 108.47,30.26 198.7,92.08 252.83,173.59 31.6,48.06 63.42,95.48 94.36,142.64 63.55,14.46 127.06,29.63 190.43,44.21 106.61,25.76 196.55,81.34 250.34,156.39 53.95,75.19 68.24,161.39 41.38,244.5 -15.69,47.28 -31,94.92 -46.13,141.8 32.59,39.87 65.24,79.2 98.15,118.72 54.48,65.97 73.08,144.04 50.75,219.12 -20.85,73.42 -78.79,137.81 -161.14,181.53 -48.3,25.39 -96.59,50.81 -143.51,75.97 z M 2025.84,3073.76 c 82.62,47.89 188.28,58.98 272.82,20.81 85.92,-38.24 130.16,-117.79 121.99,-202.25 67.94,66.02 171.57,100.27 270.71,83.27 100.15,-18.67 172.86,-85.06 193.88,-167.71 45.54,78.9 136.8,134.97 242.01,140.31 106.12,5.12 200.35,-41.72 249.9,-116.39 17.71,84.88 88.1,159.26 188.8,188.19 101.18,27.69 209.39,4.01 283.21,-56.32 -12.71,85.28 29.4,170.49 116.67,218.97 86.82,48.19 198.56,48.21 288.22,8.45 -40.09,76.04 -29.4,165.26 37.08,229.66 65.39,62.55 170.04,86.09 266.88,67.41 -63.31,62.32 -83.45,147.76 -43.05,220.02 39.48,71.42 128.33,113.92 225.21,115.31 -80.51,45.5 -127.24,119.94 -114.96,194.5 13.45,73.31 80.86,129.49 168.4,149.44 -88.59,26.26 -156.02,85.63 -169.35,156.33 -12.84,69.81 30.03,133.62 104.12,168.31 -89.64,7.76 -172.35,49.53 -208.83,111.95 -34.97,61.52 -16.29,128.02 40.73,173.07 -86.07,-8.93 -177.04,14.48 -231.02,65.46 -53.99,50.23 -58.72,114.77 -21.02,166 -76.93,-23.3 -169.72,-17.5 -238.72,20.29 -67.11,37.2 -93.16,95.64 -74.89,149.21 -64.81,-34.81 -154.52,-45.03 -231.75,-22.05 -76.85,22.6 -121.75,72.73 -122.37,125.32 -50.35,-43.13 -132.5,-68 -214.84,-60.16 -82.31,8.14 -142.52,47.04 -160.97,95.95 -34.21,-49.07 -105.62,-86.03 -188.66,-92.94 -82.79,-6.62 -154.93,18.73 -190.55,61.91 -16.48,-51.59 -73.97,-99.27 -153.94,-120.18 -79.77,-20.97 -161.26,-9.32 -211.53,25.29 1.52,-51.77 -39.7,-107.78 -112.66,-141.77 -72.91,-34.26 -159.14,-37.79 -222.04,-14.1 19.15,-49.26 -3.13,-109.89 -65.46,-156.26 -63.11,-46.39 -150.16,-65.51 -223.07,-54.64 37.36,-43.89 35.55,-106.66 -12.53,-162.75 -48.51,-56.67 -131.82,-91.91 -211.88,-95.45 54.74,-35.42 74.69,-96.4 44.66,-160.43 -30.57,-65.03 -105.35,-115.93 -187.48,-134.85 69.69,-24.03 111.74,-79.29 102.71,-147.87 -9.11,-69.62 -68.61,-134.67 -148.57,-170.37 80.69,-8.76 145.27,-54.21 160.67,-122.78 14.85,-70.2 -24.93,-147.05 -96.76,-199.55 88.91,9.16 172.7,-21.35 212.36,-85.44 40.03,-64.79 25.71,-149.08 -30.56,-215.83 89.24,28.11 187.5,16.93 251.75,-37.25 65.22,-55.04 79.12,-140.07 44.68,-218.09 z m 2453.94,2293.22 c 59.29,-30.02 116.65,-62.15 171,-96.38 -4.06,-4.63 -9.03,-8.86 -13.82,-13.12 -61.96,-52.22 -124.53,-104.63 -187.76,-157.99 81.6,40.53 163.16,80.99 244.29,120.63 6.51,3.42 13.63,6.15 20.58,8.9 109.9,-74.57 207.64,-157.69 292.36,-247.57 -5.77,-3.61 -12.63,-7.56 -19.58,-11.01 -82.84,-41.48 -166.56,-84.01 -250.45,-127.02 98.53,26.12 197.14,52.36 294.9,77.87 7.74,2.11 16.21,3.86 24.72,5.16 83.64,-96.87 152.85,-201.44 206.73,-311.62 -7.74,-2.74 -15.54,-5.01 -24.15,-7.74 -101.72,-27.03 -203.85,-54.07 -305.37,-81.74 110.34,7.34 221.2,15.15 332.62,22.49 9.17,0.54 18.04,0.69 27.27,0.7 49.43,-116.51 81.75,-239.1 96.04,-364.85 -9.19,-1.05 -18.37,-2.07 -27.6,-2.55 -116.15,-7.17 -231.55,-13.99 -346.67,-21.09 116.48,-15.62 233.67,-30.92 351.63,-45.93 9.88,-0.95 19.47,-2.82 29.04,-4.7 7.48,-130.04 -4.87,-262.7 -37.85,-395.43 -9.85,0.59 -20.43,1.55 -30.01,3.09 -123.46,17.62 -244.73,34.81 -365.34,52.36 113.45,-40.43 228.08,-81.61 344.94,-122.65 9.5,-3.17 19.25,-7.49 28.12,-11.36 -41.15,-133.49 -104.15,-266.66 -189.59,-394.77 -10.18,2.69 -19.99,5.86 -29.85,9.53 -119.5,45.59 -236.97,89.82 -353.26,134.2 100.85,-65.8 202.7,-132.39 306.82,-200.98 8.37,-5.07 16.58,-11.2 23.78,-17.27 -45.93,-62.82 -97.46,-123.48 -154.76,-183.58 -57.31,-60.08 -119.59,-117.87 -185.6,-171.46 -9,4.73 -17.81,10.53 -25.97,16.4 -103.83,72.87 -206.01,144.35 -306.48,214.68 76.81,-88.74 154.82,-178.48 234.96,-270.34 6.44,-7.66 12.56,-15.7 17.62,-23.65 -142.76,-107.23 -300.51,-198.58 -469.24,-273.76 -7.05,7.26 -14.07,15.15 -20.05,22.94 -76.54,95.98 -151.68,189.67 -225,282.06 43.53,-104.51 87.83,-211.59 134.11,-320.72 3.78,-9.01 6.62,-18.14 9.33,-27.5 -177.67,-70.83 -364.17,-123.59 -554.99,-157.5 -4.34,9.11 -7.98,17.76 -11.62,27.44 -39.88,110.42 -79.14,219.18 -117.65,325.84 5.62,-111.92 11.31,-226.15 17.64,-342.84 0.33,-9.52 0,-19.05 -0.36,-28.6 -193.09,-26.54 -387.98,-34.19 -580.13,-23.38 -0.58,9.25 -1.54,18.66 -1.46,27.88 0.02,116.54 0.43,229.9 1.01,341.29 -33.22,-108.36 -66.24,-220.07 -100.34,-332.78 -2.28,-9.51 -6,-18.53 -9.85,-27.94 -186.93,18.27 -368.62,55.02 -540.76,109.29 2.14,9.5 4.5,18.88 7.49,27.59 38.63,110.47 76.08,218.37 112.63,324.63 -65.98,-96.46 -132.61,-194.65 -200.16,-294.51 -5.53,-8.2 -11.74,-16.37 -17.92,-23.94 -161.92,58.47 -312.68,133.36 -449.35,224.02 4.48,8.19 9.65,16.34 15.14,24.17 69.54,95.99 137.8,189.55 205.45,281.6 -90.11,-77.17 -181.26,-155.61 -273.59,-234.79 -7.1,-6.21 -15.28,-12.25 -23.02,-17.84 -62.88,45.6 -121.6,94.81 -176.43,146.73 -54.83,51.92 -104.18,104.94 -148.48,160.23 6.73,6.37 13.78,12.84 20.8,18.76 91.02,74.63 180.9,148.53 269.9,221.61 -104.7,-53.68 -208.94,-108.08 -314.24,-162.96 -8.65,-4.38 -17.63,-8.49 -26.57,-12.03 -81.77,112.9 -143.55,231.79 -186.4,353.84 7.87,4.77 16.31,9.16 24.46,13.53 102.18,51.39 203.11,102.55 304.24,153.36 -107.97,-29.94 -216.26,-59.58 -325.35,-89.32 -8.66,-2.39 -17.6,-4.38 -26.576,-6 -35.141,121.49 -51.406,244.84 -50.367,367.67 8.601,2.84 16.465,5.59 25.59,7.6 103.903,28.52 208.253,57 312.513,85.21 -104.33,-7.32 -207.83,-14.21 -310.869,-21.47 -8.367,-0.47 -16.355,-0.59 -24.344,-0.69 7.328,120.02 30.871,239.06 70.403,355.21 7.93,1.17 16.12,1.88 24.05,2.57 99.05,7.22 198.88,14.05 299.18,21.32 -92.97,12.92 -185.98,25.52 -277.35,38.57 -7.81,1 -15.04,2.22 -22.16,3.75 43.76,111 101.45,218.89 172.97,322.49 7.39,-0.24 15.12,-0.69 22.09,-1.89 89.41,-10.8 179.83,-22.14 270.57,-33.2 -78.56,28.94 -155.82,57.84 -232.46,86.13 -6.35,2.51 -12.46,5.03 -18.16,7.98 72.62,96.71 158.28,190.02 255.44,277.33 6.27,-1.5 13.04,-3.27 19.03,-5.42 75.98,-26.41 152.55,-53.06 230.03,-79.99 -60.63,41.91 -120.58,83.33 -179.5,124.03 -4.78,3.37 -9.33,6.72 -13.11,10.37 48.39,40.86 100.01,80.6 153.84,118.41 53.82,37.82 107.96,72.83 164.11,106 5.43,-2.74 10.62,-5.44 15.43,-8.61 59.69,-38.46 120.3,-77.89 181.71,-117.46 -40.97,51.19 -81.67,101.84 -121.67,151.66 -3.02,3.82 -6,8.31 -8.44,12.5 116.64,64.09 238.67,119.25 363.49,165.4 3.95,-3.66 8.06,-7.45 11.41,-11.58 41.92,-48 84.7,-96.79 128.04,-146.2 -20.85,57.45 -41.15,114.12 -60.82,169.88 -1.95,4.46 -2.92,9.25 -3.93,14 128.45,42.92 260.26,76.93 393.44,101.45 2.61,-4.36 4.53,-8.39 6.58,-13.23 23.12,-54.83 46.39,-110.66 70.07,-166.83 -0.13,60.38 -0.17,120.15 0.41,178.95 0.22,4.83 0.59,9.53 1.33,14.09 134.64,21.05 272.03,32.84 408.5,34.9 0.58,-4.48 1.56,-9.09 1.75,-14.1 2.53,-58.55 4.86,-118.37 7.94,-179.16 21.33,60.68 42.62,120.43 63.91,179.31 1.21,5.06 3.66,9.55 5.73,14.19 136.21,-1.63 272.73,-12.97 406.59,-34.34 -0.43,-4.75 -1.52,-9.66 -3.06,-14.68 -17.93,-59.87 -36.53,-120.74 -55.11,-182.54 42.16,57.32 84.32,114.25 125.78,170.03 3.39,4.55 7.41,9.18 11.13,13.5 132.1,-25.2 262.93,-60.37 388.96,-106.15 -2.28,-4.47 -4.95,-9.52 -8.3,-14.27 -40.28,-57.89 -81.17,-116.28 -121.86,-175.88 63.1,50.92 125.27,101.4 187.15,151.23 4.76,4.04 10.39,7.7 15.86,11.4 61.2,-24.13 121.18,-51.03 180.51,-81.05 v 0"
         style="fill:#4b2e1a;fill-opacity:1;fill-rule:evenodd;stroke:none"
         id="path182" />
      <path
         d="m 1281.47,2736.79 v 0 c -66.36,64.36 -50.01,174.03 34.88,244.16 117.24,96.85 232.08,192.51 346.34,286.6 80.83,66.55 201.57,73.44 269.77,15.71 v 0 c 69.07,-59 60.36,-164.04 -21.2,-233.54 -115.47,-98.38 -231.83,-197.83 -350.13,-298.84 -85.97,-73.39 -212.35,-79.48 -279.66,-14.09 z m 3798.48,182.62 v 0 c -71.29,-76.08 -211.2,-81.87 -308.62,-13.96 -133.59,93.13 -264.89,183.38 -392.72,272.35 -89.93,62.6 -104.37,169.9 -33.67,238.6 v 0 c 69.72,67.27 199.43,74.41 289.86,14.89 127.96,-84.24 258.94,-170.61 392.58,-259.04 97.61,-64.59 122.15,-179.02 52.57,-252.84 z M 1646.18,5227.76 v 0 c 65.28,45.34 162.52,53.73 216.96,18.22 76.82,-50.1 155.05,-101.02 235.05,-152.97 58.25,-37.82 52.29,-108.66 -14.4,-157.64 v 0 c -67.25,-49.5 -170.11,-57.55 -227.69,-18.09 -78.87,54.05 -156.27,107.3 -232.77,159.62 -53.86,36.79 -43.03,104.74 22.85,150.86 z m 130.43,-2842.29 c 93.92,-47.56 224.44,-10.02 288.8,83.64 87.6,127.52 173.43,252.15 257.66,374.38 59.71,86.63 31.92,191.04 -60.25,232.82 v 0 c -90.75,41.03 -212.86,6.67 -273.65,-77.14 -86.17,-118.76 -173.23,-239.88 -262.09,-363.18 -64.65,-89.69 -43.52,-202.92 49.53,-250.52 v 0 z m 3638.7,1024.67 c 37.97,82.27 -21.58,181.32 -131.36,220.67 -150.42,53.93 -298.5,106.64 -443.78,158.73 -103.19,37 -221.26,4.49 -263.19,-72.25 v 0 c -42.26,-77.45 6.99,-174.04 111.98,-213.5 148.21,-55.71 298.47,-112.72 452.1,-170.42 111.23,-41.77 235.56,-7.11 274.25,76.77 v 0 z M 1278.39,4911.13 v 0 c 52.97,56.7 152.42,82.61 221.89,58.3 97.81,-34.18 197.31,-68.95 298.1,-104.33 73.28,-25.72 92.01,-95.02 40.74,-154.94 v 0 c -52.48,-60.44 -156.05,-87.86 -230,-60.72 -101.87,37.38 -201.93,74.08 -300.62,110.57 -70.44,26.04 -83.33,94.25 -30.11,151.12 z m 2808.99,731.18 c -79.56,21.18 -174.82,-3.59 -212.83,-55.18 -53.36,-72.43 -107.48,-146.47 -162.19,-221.17 -40.19,-54.87 -7.09,-119.58 75.06,-143.57 v 0 c 82.42,-24.27 182.98,2.03 222,58 53.58,76.83 106.15,152.36 158.52,227.04 36.89,52.64 0.33,112.93 -80.56,134.88 v 0 z M 2417.65,2162.93 v 0 c -112.56,23.36 -174.49,129.74 -139.25,233.27 48.29,141.87 96.05,280.76 142.48,416.8 32.35,94.81 145.59,156.07 252.19,137.12 v 0 c 107.54,-18.83 171.61,-113.6 141.85,-210.95 -42.25,-138.25 -85.57,-279.75 -129.79,-424.87 -32.3,-106.03 -153.05,-175.29 -267.48,-151.37 z m 3134.99,1760.72 v 0 c -7.12,-83.63 -107.02,-139.21 -220.29,-122.94 -157.19,22.56 -313.02,44.72 -466.73,66.33 -109.74,15.44 -187.87,94.03 -174.85,174.12 v 0 c 12.85,78.64 110.35,130.96 217.18,116.93 149.7,-19.66 301.33,-39.57 454.12,-60.06 110.4,-14.81 196.93,-92.57 190.57,-174.38 z m -4551.86,607.7 v 0 c 36.67,65.93 133.19,110.41 215.7,100.06 115.57,-14.51 232.63,-29.09 350.76,-43.88 85.17,-10.66 129.3,-74.67 96.45,-142.69 v 0 c -32.58,-69.15 -131.99,-116.83 -218.95,-105.09 -120.54,16.3 -239.91,32.56 -357.92,48.55 -84.27,11.42 -122.527,76.01 -86.04,143.05 z m 2580.97,1197.67 v 0 c 84.16,-7.11 139.34,-57.03 122.21,-111.67 -24.31,-77.39 -48.85,-156.35 -73.47,-236.14 -18.2,-58.94 -105.31,-100.25 -192.97,-91.4 v 0 c -87.38,8.36 -141.8,63.09 -121.94,120.63 27.16,78.74 54.76,156.53 81.42,233.01 18.86,54.07 101.61,92.16 184.75,85.57 z M 3148.32,2103.34 v 0 c -121.24,-4.85 -221.28,83.16 -221.98,192.02 -0.97,149.38 -1.2,294.84 -1.79,436.37 -0.43,99.81 90.97,184.3 204.23,189.62 v 0 c 113.52,5.9 210.07,-70.11 214.43,-170.31 6.15,-141.53 11.97,-287.6 18.61,-437.87 4.84,-109.56 -92.04,-204.76 -213.5,-209.83 z m 2356.21,2309.35 v 0 c 21.41,-75.87 -48.49,-145.16 -155.52,-151.93 -148.75,-9.41 -296.99,-18.44 -443.82,-27.66 -105.1,-6.59 -203.67,51.38 -218.32,126.95 v 0 c -14.25,74.63 57.74,139.92 160.26,146.69 142.71,9.44 286.03,18.89 430.65,28.58 103.05,6.9 205.35,-48.03 226.75,-122.63 z M 838.285,4100 v 0 c 15.68,72.64 103.735,136.56 195.855,143.26 128.63,9.38 258.26,18.49 388.57,27.73 93.46,6.61 161.91,-46.52 152.13,-120 v 0 c -10.61,-74.05 -97.88,-141.22 -194.23,-147.82 -133.57,-9.18 -266.5,-18.05 -398.786,-27.05 C 887.09,3969.67 822.563,4026.3 838.285,4100 Z M 3065.92,5727.57 v 0 c 83.53,7.13 154.43,-30.48 156.53,-84.16 2.98,-76.16 6.52,-153.91 9.62,-232.84 2.27,-57.39 -68.61,-111.12 -156.81,-118.53 v 0 c -87.93,-6.93 -159.72,34.93 -160.25,92.31 -0.71,79.39 -0.41,156.86 -0.39,232.6 0.02,53.77 68.3,103.35 151.3,110.62 z m 823.72,-3505.9 c 115.79,33.03 175.65,146.77 133.41,249.57 -57.71,140.42 -114.57,277.36 -169.03,411.2 -37.97,93.28 -157.55,143.75 -266.06,113.39 v 0 c -108.69,-29.91 -169.75,-131.49 -134.94,-226.53 49.43,-135.08 100.3,-274.07 152.77,-416.55 38.5,-104.56 166.22,-164.99 283.85,-131.08 v 0 z m 1410.61,2622.72 v 0 c 45,-65.31 4.9,-139.35 -88.56,-164.41 -130.55,-35 -261.2,-70.09 -392.49,-105.01 -94.01,-25.01 -204.03,9.78 -242.55,76.59 v 0 c -38.4,65.25 5.98,138.57 97.99,162.87 127.38,33.66 254.72,67.44 381.9,101.01 90.8,23.98 200.73,-7.74 243.71,-71.05 z M 816.793,3635.91 c 9.602,-77.22 99.379,-118.76 199.307,-91.34 138.81,38.11 277.77,76.7 416.55,114.6 99.47,27.17 167.47,111.47 151.98,186.21 v 0 c -15.03,74.18 -106.56,112.56 -203.35,86.31 -134.33,-36.43 -269.39,-73.62 -404.073,-110.29 -97.211,-26.46 -169.852,-109.27 -160.414,-185.49 v 0 z M 2558.75,5640.85 c -80.67,-20.93 -131.76,-79.04 -112.92,-129.9 26.55,-71.57 53.72,-144.76 81.12,-219.5 20.14,-55.03 106.53,-81.81 191.29,-59.68 v 0 c 85.22,21.92 136.46,84.95 114.22,138.94 -30.36,73.65 -60.41,146.29 -89.53,216.93 -20.66,50.22 -103.11,73.9 -184.18,53.21 v 0 z M 4556.3,2505.31 v 0 c -98.42,-58.05 -239.74,-30.76 -312.6,59.51 -99.12,122.81 -195.47,241.76 -289.14,358.69 -65.9,82.24 -42.48,190.9 51.53,243.37 v 0 c 93.07,51.91 223.64,30.24 292.18,-49.49 97.02,-112.85 196.29,-228.9 298.86,-348.09 74.61,-86.71 57.06,-206.19 -40.83,-263.99 z m 418.49,2692.81 c -60.36,50.31 -170.71,60.89 -245.27,23.95 -104.97,-52.04 -210.73,-104.26 -316.74,-156.97 -76.89,-38.24 -93.66,-112.92 -36.48,-166.09 v 0 c 58.79,-54.74 171.28,-66.87 250.04,-26.92 108.14,54.85 216.04,109.3 322.26,162.98 76.47,38.64 87.56,111.98 26.19,163.05 v 0 z M 959.43,3168.74 v 0 c -36.942,73.36 11.258,172.42 107.22,221.1 131.78,66.85 262.74,132.31 392.75,198.07 92.35,46.72 202.07,29.09 244.29,-39.77 v 0 c 42.33,-69.88 1.05,-167.86 -94.1,-216.88 -133.64,-68.84 -267.53,-137.92 -402.74,-207.99 -97.29,-50.42 -208.995,-29.94 -247.42,45.47 z m 1120.34,2304 v 0 c 74.32,33.73 165.84,25.72 204.14,-18.56 53.87,-62.26 108.79,-126.02 164.92,-190.73 40.96,-47.27 11.33,-115.78 -66.36,-152.2 v 0 c -77.85,-36.46 -174.48,-25.95 -214.05,22.53 -54.47,66.74 -107.58,131.62 -159.3,195.68 -36.43,45.12 -4.42,109.38 70.65,143.28 z m 1595.67,-877.38 c -6.27,41.57 -12.45,82.91 -18.56,124.3 -57.92,-2.57 -116.19,-4.81 -173.95,-7.02 -44.22,-2.05 -86.9,2.17 -126.52,12.15 -39.63,10.06 -74.19,25.46 -104.86,45.99 -40.02,26.89 -79.13,53.25 -118.16,79.92 -44.44,-27.4 -88.9,-55.13 -133.05,-82.62 -33.91,-20.97 -71.43,-37.59 -111.91,-48.39 -0.31,-0.26 -0.31,-0.26 -0.31,-0.26 -40.87,-10.56 -82.79,-15.89 -126.09,-14.62 -56.05,1.14 -111.91,2.29 -167.53,3.55 -13.41,-40.74 -27.22,-81.51 -40.69,-122.68 -11.04,-32.5 -28.61,-62.43 -53.48,-89.19 -25.19,-27.07 -56.99,-50.46 -95.72,-71.57 -50.24,-26.49 -100.46,-52.94 -150.28,-79.46 23.9,-36.98 48.18,-74.11 72.78,-111.07 19.29,-29.52 29.98,-60.69 32.22,-93.65 1.92,-33.99 -4.62,-68.65 -20.22,-102.81 -20.98,-45.94 -41.99,-92.05 -62.58,-138.26 54.63,-14.78 109.63,-29.67 165.37,-44.36 43.62,-11.54 80.88,-29.4 112.14,-52.58 31.21,-23.3 55.81,-52.48 73.57,-87.02 22.34,-45.16 45.75,-90.34 69.01,-136.06 60.43,19 120.91,38.23 182.1,57.27 45.6,14.43 92.64,21.56 140.73,20.97 47.21,-0.72 92.98,-8.81 137.2,-24.29 56.98,-20.7 115.2,-41.01 173.62,-61.79 32.64,45.79 65.1,91.1 97.87,135.98 25.11,35.29 55.7,64.44 92.47,87.69 36.47,22.98 79.03,40.06 127.45,51.57 61.31,14.33 122.64,28.89 184.38,43.46 -13.21,48.48 -26.16,95.65 -38.73,143.2 -10.14,35.8 -9.77,71.24 -1.27,105.65 0,0 0,0 0.31,0.3 8.47,34.29 26.32,66.42 52.14,96.24 33.28,38.56 66.76,76.98 100.64,115.08 -48.58,26.96 -97.01,54.32 -144.23,81 -36.48,20.74 -65.43,45.09 -86.68,72.85 -21.27,27.69 -34.67,58.14 -39.18,90.53 z m 353.7,191.66 c -11.56,60.17 -54.24,110.45 -115.1,144.98 -60.06,34.45 -138.08,52.93 -222.64,49.23 -64.57,-3.03 -128.47,-6.25 -191.68,-9.08 -45.42,29.16 -89.99,57.8 -134.1,86.57 -57.21,36.22 -131.24,53.86 -206.56,52.52 -75.27,-1.04 -152.69,-21.34 -216.72,-60.36 -49.16,-29.85 -98.48,-59.58 -147.48,-89.8 -61.99,1.03 -122.57,1.96 -183.47,2.8 -79.94,1.09 -158.24,-19.47 -221.18,-54.47 -63.33,-34.74 -111.94,-84.94 -133.56,-143.61 -17.13,-44.57 -33.83,-90 -50.9,-136.03 -55.17,-28.55 -111.39,-57.69 -166.94,-86.71 -72.78,-38.07 -125.36,-91.04 -151.31,-149.18 -26.59,-59.11 -26.78,-122.39 6.57,-176.96 25.38,-42.47 51.05,-85.39 77.25,-128.47 -25.06,-51.05 -49.84,-102.08 -74.87,-154.15 -33.48,-68.41 -32.56,-138.39 -3.53,-196.95 29.5,-59.75 88.54,-107.37 170.61,-130.58 62.59,-17.95 126.58,-36.19 190.53,-54.15 24.05,-52.37 47.83,-105.27 73.02,-158.58 32.3,-70.67 96.88,-123.36 176.67,-150.15 81.43,-28.2 176.99,-29.91 270.24,-0.52 70.77,22.79 141.38,45.09 212.7,67.71 66.25,-25 132.75,-49.53 200.2,-75.01 88.69,-33.35 187.77,-35.3 276.95,-10.45 88.7,24.8 165.48,75.87 213.56,146.82 36.11,53.53 72.64,107.6 108.8,160.64 71.48,17.21 143.06,34.27 215.19,51.14 94.99,22.17 168.79,70.43 213.08,131.45 43.83,61.02 58.54,134.36 35.72,206.95 -17.37,54.69 -35.25,108.36 -51.36,161.55 37.54,45.27 74.98,90.05 112.67,134.99 47.98,57.88 61.49,124.66 44.3,185.54 -17.11,60.79 -64,116.3 -136.48,155.06 -55.14,29.26 -110.3,58.54 -163.73,87.36 -9.51,47.16 -18.18,93.6 -26.45,139.9 z m -633.77,-284.39 c 174.38,-110.23 194.03,-317.35 25.41,-463.21 -168.65,-145.86 -460.34,-163.64 -632.07,-40.85 -171.73,122.79 -161.1,329.02 5,462.07 166.1,133.05 427.28,152.22 601.66,41.99 z m 1165.19,963.21 v 0 c 73.31,-36.36 87.42,-105.53 30.71,-152.97 -80.17,-67.07 -160.85,-134.86 -242.63,-203.37 -59.61,-49.95 -168.85,-57.94 -242.38,-17.96 v 0 c -71.42,38.88 -80.8,110.51 -21.52,158.68 81.41,66.11 161.88,131.72 241.91,196.52 56.69,45.89 161.63,54.88 233.91,19.1 v 0"
         style="fill:#7a4e27;fill-opacity:1;fill-rule:evenodd;stroke:none"
         id="path184" />
      <path
         d="m 1368.95,2876.25 c -28.87,27.71 -21.94,76.4 14.89,107.1 117.46,97.93 233.11,194.26 347.63,289.82 35.11,29.3 88.53,32.44 118.33,6.7 29.84,-25.79 26.04,-72.04 -9.61,-102.12 -115.02,-97.06 -231.29,-195.27 -349.17,-295.34 -36.74,-31.19 -92.49,-34.31 -122.07,-6.16 z m 3609.43,177.47 c -30.96,-32.58 -92.36,-35.44 -134.13,-6.88 -133.96,91.66 -264.66,181.46 -392.85,268.98 -39.37,26.87 -45.97,73.94 -14.83,104.58 30.18,29.71 87.86,32.77 127.34,6.44 128.15,-85.53 258.95,-173.06 392.71,-262.89 41.91,-28.14 52.35,-78.48 21.76,-110.23 z M 1700.75,5256.73 c 28.61,20.22 71.92,23.95 95.67,8.35 77.17,-50.75 154.99,-102.08 234.74,-154.93 25.15,-16.66 21.85,-47.8 -7.23,-69.16 -28.91,-21.26 -73.79,-24.97 -98.87,-7.95 -79.22,53.73 -157.42,105.97 -233.97,157.58 -23.41,15.78 -18.97,45.9 9.66,66.11 z M 1843.1,2546.52 c 40.93,-20.54 98.21,-4.57 126,35.6 87.43,126.36 173.59,250.16 258.7,371.52 26.39,37.63 14.23,83.8 -25.61,102.2 -39.32,18.17 -94.46,2.58 -120.68,-34.06 -85.4,-119.38 -172.47,-241.16 -260.61,-366.12 -27.62,-39.16 -17.67,-89.27 22.2,-109.14 z m 3457.97,971.44 c 16.7,35.22 -8.85,79.32 -56.28,96.6 -151.47,55.15 -300.39,108.82 -446.2,161.78 -45.42,16.49 -97.55,1.69 -115.78,-31.77 -18.48,-33.93 4.45,-76.54 49.48,-93.33 147.34,-54.94 297.52,-110.24 449.53,-166.61 47.85,-17.74 102.07,-2.73 119.25,33.33 z M 1349.73,4951.63 c -22.83,-24.84 -17,-55.12 13.23,-66.11 98.42,-35.72 198.76,-72.21 300.09,-108.95 31.64,-11.47 77.08,1 99.66,26.75 22.61,25.8 14.78,56.5 -16.83,67.75 -100.81,35.87 -200.31,71.05 -298.64,105.93 -30.6,10.86 -74.89,-0.49 -97.51,-25.37 z m 2700.06,703.53 c -34.58,9.2 -77.27,-1.92 -93.54,-24.3 -53.12,-73.12 -106.99,-147.58 -161.4,-223.07 -17.17,-23.84 -2.12,-51.87 33.38,-62.23 35.66,-10.4 80.09,0.92 96.91,24.83 53.77,76.43 106.35,151.76 158.98,225.23 16.31,22.77 0.85,49.72 -34.33,59.54 z M 2453.34,2337.71 c 49.07,-9.8 101.94,20.1 116.33,65.66 45.46,143.99 89.85,285.19 133.45,422.51 13.33,42.04 -14.91,84.16 -61.43,92.62 -47.11,8.6 -96.99,-18.74 -110.97,-60.48 -45.53,-136.3 -91.7,-276.14 -138.99,-418.61 -15.03,-45.31 13.14,-91.5 61.61,-101.7 z m 2983.28,1667.35 c 3.37,35.81 -34.31,70.53 -82.45,76.96 -154.69,20.62 -307.44,41.2 -458.35,61.6 -46.51,6.27 -89.91,-17.13 -95.17,-51.71 -5.25,-34.51 29.62,-69.38 76.96,-75.96 152.6,-21.18 306.89,-42.13 463.03,-63.91 49.37,-6.9 92.58,17.1 95.98,53.02 z m -4351.05,580.77 c -15.39,-28.86 1.94,-57.29 38.12,-62.13 117.53,-15.75 236.21,-31.1 355.81,-46.98 37.97,-5.03 81.61,15.51 95.83,45.21 14.33,29.94 -4.86,58.04 -41.99,62.76 -118.79,15.09 -236.66,30.54 -353.01,45.46 -35.78,4.59 -78.9,-15.39 -94.76,-44.32 z m 2478.22,1153.88 c -36.3,3.07 -73.45,-13.96 -81.31,-37.48 -25.73,-76.93 -52.24,-154.75 -78.8,-234.27 -8.43,-25.28 15.59,-49.08 53.48,-52.61 38.18,-3.54 76.01,14.4 84.01,39.7 25.29,79.95 50.57,158.53 75.56,235.64 7.7,23.77 -16.29,45.88 -52.94,49.02 z M 3145.54,2283.44 c 52.29,1.57 94.86,43.54 93.24,90.74 -5.06,149.77 -9.22,295.33 -13.66,437.37 -1.37,43.71 -44.05,77.88 -93.88,75.6 -49.95,-2.28 -90.58,-40.8 -90.11,-84 1.54,-141.88 4.7,-287.51 7.12,-436.6 0.74,-47.44 45.56,-85.38 97.29,-83.11 z m 2250.78,2188.07 c -8.41,32.79 -53.48,57.18 -99.25,54.14 -145.36,-9.65 -290.39,-18.7 -434.21,-28.09 -45.02,-2.94 -76.83,-32.42 -70.24,-64.84 6.7,-32.9 50.64,-57.86 95.91,-55.02 145.85,9.1 292.31,18.63 439.77,27.98 46.12,2.92 76.66,33.25 68.02,65.83 z M 933.809,4172.64 c -6.731,-32.32 22.281,-56.4 62.746,-53.67 131.375,8.89 263.325,17.79 395.965,27.05 41.56,2.9 80.38,32.06 85.05,64.46 4.59,31.68 -25.69,55.65 -66.59,52.85 -131.35,-8.99 -261.84,-18.55 -391.3,-27.54 -40.887,-2.84 -79.676,-31.49 -85.871,-63.15 z M 3067.21,5738.93 c -36.75,-3.27 -66.57,-25.46 -66.37,-48.65 0.66,-76.15 1.4,-153.48 2.88,-232.4 0.47,-25.18 32.34,-43.21 70.65,-40.2 38.03,2.99 68.97,26.42 68.23,51.56 -2.38,78.8 -5.14,156.14 -7.06,232.68 -0.61,23.6 -31.71,40.09 -68.33,37.01 z M 3846.82,2395 c 50.27,14.4 76.7,63.76 58.6,108.75 -56.63,140.82 -110.97,278.44 -163.98,412.32 -16.37,41.38 -69.37,64.3 -117.03,50.71 -47.06,-13.42 -73.79,-58.62 -58.37,-99.74 50.61,-134.82 103.17,-273.53 157.42,-415.28 17.14,-44.79 73.27,-70.6 123.36,-56.76 z m 1359.6,2489.6 c -18.72,27.77 -67.35,42.23 -106.83,31.77 -128.56,-34.07 -256.99,-68.15 -385.36,-102.43 -39.91,-10.66 -58.92,-43 -42.12,-71.48 16.91,-28.68 65.19,-43.86 105.8,-32.93 129.51,34.86 259.5,69.21 389.17,103.91 40.17,10.76 58.08,43.29 39.34,71.16 z M 917.887,3729.37 c 4.386,-33.15 43.359,-50.66 86.783,-38.85 137.54,37.41 275.54,75.13 413.44,112.57 42.74,11.61 72.93,48.47 66.52,81.13 -6.34,32.4 -46.58,49.29 -88.95,37.89 -136.01,-36.6 -272.02,-74.42 -407.914,-111.06 -42.762,-11.52 -74.309,-48.62 -69.879,-81.68 z M 2578.95,5655.69 c -35.2,-9.15 -57.63,-34.92 -49.3,-56.97 27.13,-71.88 54.93,-144.86 83.38,-219.35 9.05,-23.71 46.57,-35.31 83.59,-25.79 36.66,9.43 59.14,37.06 49.82,60.38 -29.62,74.2 -58.6,146.84 -86.68,217.98 -8.74,22.14 -45.59,32.99 -80.81,23.75 z m 1901.2,-2992.03 c 41.81,24.12 50.1,76.84 18.17,114.78 -100.91,119.89 -199.83,236.5 -295.92,350.59 -29.36,34.89 -88.02,44.6 -128.43,21.84 -40.86,-23.01 -51.02,-71.14 -21.91,-106.58 94.81,-115.41 191.93,-234.03 291.8,-355.97 31.58,-38.59 93.8,-49.88 136.29,-24.66 z m 417.45,2562.16 c 26.38,-22.63 21.5,-55.28 -11.41,-71.68 -106.75,-53.18 -213.55,-106.97 -321.23,-161.27 -33.44,-16.88 -82.58,-11.15 -108.47,12.24 -24.95,22.55 -18.19,55.78 15.17,72.43 106.59,53.16 212.66,106.36 318.19,158.44 32.82,16.2 81.94,11.7 107.75,-10.16 z M 1058.91,3284.89 c 16.76,-32.23 66.28,-40.79 108.17,-19.22 133.93,68.99 267.1,137.41 399.26,205.06 41.03,21 60.12,64.39 41.53,94.92 -18.27,29.99 -66.57,38.08 -107.24,17.45 -131.24,-66.59 -262.94,-133.62 -395.35,-201.22 -41.76,-21.32 -62.86,-65.2 -46.37,-96.99 z m 1058.52,2208.5 c -33.01,-14.69 -46.47,-43.43 -30.32,-63 52.42,-63.51 105.86,-128.35 160.29,-194.06 17.32,-20.92 60.14,-25.02 93.53,-9.5 33.48,15.54 46.87,45.88 29.67,66.07 -55.79,65.49 -110.24,129.49 -163.56,192.21 -16.47,19.39 -57.26,22.94 -89.61,8.28 z m 1209.51,-981.68 c 135.26,-86.46 145.05,-245.65 17.24,-355.1 -130.74,-111.98 -348.3,-125.74 -482.26,-31.44 -130.52,91.87 -127.9,250.03 1.56,354.58 126.23,101.91 331.74,116.57 463.46,31.96 z m 567.05,-331.32 c -3.84,-21.24 -2.02,-42.62 4.31,-64.4 19.77,-71.69 40.4,-144.54 61.55,-217.88 -93.81,-22.35 -187.7,-44.49 -281.51,-66.69 -33.24,-7.59 -63.62,-19.11 -90.85,-36.6 -26.54,-17.41 -47.87,-38.12 -64.47,-61.74 -48.95,-69.24 -98.81,-139.28 -148.62,-210.15 -89.36,32.2 -178.16,63.96 -266.15,95.44 -30.57,11.45 -63.23,17.75 -97.05,17.7 -34.06,0.64 -67.52,-4.49 -100.37,-14.45 -92.93,-29.69 -185.64,-58.72 -278.52,-88 -35.1,70.8 -69.55,140.83 -103.18,209.4 -11.62,23.65 -28.46,44.85 -51.11,62.14 -22.65,17.24 -49.08,29.19 -79.05,37.39 -84.85,22.93 -168.66,45.44 -251.69,67.79 32.57,71.05 64.82,140.97 96.97,210.31 11.13,24.1 15.99,48.26 14.79,72.14 -1.15,24.04 -8.83,46.13 -22.18,66.31 -36.67,56.93 -72.62,113.02 -108.7,168.76 76.58,40.41 152.02,80.37 227.53,120.04 26,13.64 48.92,30.04 67.29,49.19 18.69,19.48 30.52,40.76 37.9,62.8 20.92,61.87 41.96,123.15 63.13,183.6 82.97,-1.52 166.73,-3.36 250.96,-4.67 25.45,-0.57 50.69,1.83 75.96,7.17 3.83,1.12 8.35,2.36 12.4,3.42 29.03,7.52 55.52,19.06 79.09,33.49 66.79,41.63 133.35,83.08 199.85,123.84 58.76,-39.07 118.03,-79.06 178.79,-119.05 20.9,-14.1 45.03,-24.98 72.94,-32.11 28.56,-7.09 57.57,-9.77 88.44,-8.32 87.46,3.76 175.37,7.3 262.74,11.16 9.76,-61.41 19.59,-123.82 29.71,-187.43 3.79,-22.7 12.84,-43.48 28.25,-63.37 15.72,-19.62 36.13,-36.38 61.29,-50.22 71.98,-40.28 145.64,-81.07 220.33,-122.43 -50.38,-57.73 -100.87,-116.43 -151.68,-175.65 -17.64,-20.67 -30.31,-43.61 -36.62,-68.23 -1,-3.5 -2.13,-7.36 -2.47,-10.7 z m 36.3,662.27 c -7.33,40.79 -34.56,77.39 -79.4,103.18 -44.12,25.36 -100.28,37.26 -158.13,34.81 -77.61,-3.3 -155.2,-7.07 -232.23,-10.61 -54.87,35.39 -108.75,70.56 -161.95,105.33 -38.86,25.4 -90.61,39.05 -145.59,37.98 -55.89,-1.1 -109.76,-16.28 -153.47,-42.98 -59.36,-36.24 -119.46,-72.49 -178.89,-109.15 -74.81,1.13 -149.88,2.5 -223.7,3.6 -54.47,0.8 -110.69,-12.79 -157.05,-38.58 -46.4,-25.78 -78.78,-62.38 -93.07,-101.82 -19.93,-54.79 -40.24,-109.49 -60.06,-165.24 -67.34,-34.65 -135.15,-70.13 -202.46,-105.42 -49.91,-26.17 -87.4,-63.62 -106.25,-106.05 -19.09,-42.98 -17.24,-87.23 5.94,-124.65 31.43,-50.79 63.17,-102.21 95.63,-154.37 -29.65,-61.36 -59.36,-123.49 -89.31,-186.41 -22.36,-46.98 -22.11,-95.9 -0.26,-138.54 21.9,-42.82 63.89,-74.98 119.39,-90.55 75.38,-21.14 152.22,-42.85 229.44,-64.09 29.52,-62.66 59.05,-125.23 89.48,-189.66 22.35,-47.33 66.99,-84.43 124.54,-103.8 58.44,-19.69 125.94,-20.37 188.55,-0.49 84.83,26.95 169.68,54.12 254.81,80.73 78.82,-29 159,-58.82 239.53,-88.29 61.34,-22.46 129.29,-24.63 193.53,-6.8 64.38,17.85 117.31,53.05 149.97,101.03 43.98,64.68 87.6,128.89 131.17,191.85 85.56,20.82 171.43,40.39 257.81,61.13 62.57,15.01 116.32,47.2 148.86,91.28 32.51,43.99 41.77,95.72 26.71,144.89 -20.19,65.93 -40.18,131.16 -59.69,194.93 45.83,54.41 91.29,107.89 136.52,161.41 32.78,38.79 44.53,84.8 32.27,129.95 -12.07,44.46 -46.01,83.14 -95.3,109.69 -66.55,35.83 -132.44,71.16 -196.84,106.58 -10.66,56.88 -20.3,113.5 -30.5,169.13 z m 572.15,641.07 c -31.4,15.77 -77.82,12.06 -102.42,-8.14 -79.97,-65.69 -160.5,-131.55 -242.45,-198.61 -25.85,-21.14 -20.93,-52.32 10.06,-69.06 32.05,-17.33 79.62,-14.04 105.75,7.64 81.68,67.74 162.22,134.89 242.55,201.43 24.61,20.37 18.63,50.59 -13.49,66.74 v 0"
         style="fill:#996b3d;fill-opacity:1;fill-rule:evenodd;stroke:none"
         id="path186" />
      <path
         d="m 4215.18,4422.18 c 2.08,15.76 1.28,31.02 -2.75,46.43 -3.31,12.67 -8.6,24.82 -16.31,36.05 7.92,-26.88 14.38,-54.44 19.06,-82.48 z m -232.87,-630.32 c 40.19,14.27 74.41,38.13 96.66,68.03 19.94,26.74 29.36,56.62 28.09,86.77 -33.74,-53.41 -75.27,-104.98 -124.75,-154.8 z m -742.36,-349.24 c 4.73,-1.94 9.92,-3.72 15.31,-5.68 50.8,-18.47 107.79,-20.16 161.05,-5.27 52.86,14.77 97.58,44.37 124.47,84.17 0.31,0.45 0.35,0.86 1.02,1.47 -96.96,-35.46 -198.78,-60.38 -301.85,-74.69 z m -785.86,118.51 c 4.14,-9.89 9.18,-19.67 13.89,-29.33 19.23,-39.49 55.91,-70.68 104.12,-86.61 48.54,-16.04 104.26,-16.68 156.94,0.17 10.82,3.46 21.45,6.71 32.56,9.98 -109.2,22.46 -213.07,57.62 -307.51,105.79 z M 2039,4016.08 c -3.8,-7.85 -7.43,-16.19 -11.18,-24.16 -18.68,-39.57 -18.76,-80.15 -0.32,-115.96 18.16,-35.27 53.57,-62.18 99.96,-75.25 11.28,-3.17 22.91,-6.38 34.93,-9.26 -57.69,70.17 -98.25,146.61 -123.39,224.63 z m 65.25,532.94 c -0.72,-0.72 -1.01,-1.03 -1.37,-1.21 -41.93,-21.71 -73.33,-52.78 -88.7,-88.16 -15.7,-36.13 -13.78,-72.65 5.03,-104.02 1.78,-2.94 3.77,-6.44 6.17,-9.72 15.35,68.99 41.55,137.09 78.87,203.11 z M 2553.28,4953 c -32.99,-4.05 -65.23,-14.36 -93.2,-30.07 -31.86,-17.87 -56.09,-41.69 -70.01,-67.84 51.87,36.8 106.4,69.44 163.21,97.91 z m 643.15,148.2 c -14.91,2.39 -30.38,3.73 -45.85,3.41 -19.23,-0.41 -37.95,-2.8 -56.05,-6.99 33.41,2.36 68.12,3.6 101.9,3.58 v 0"
         style="fill:#c39a6c;fill-opacity:1;fill-rule:evenodd;stroke:none"
         id="path188" />
    </g>
  </g>
</svg>
